<?xml version="1.0" encoding="UTF-8"?>
<svg id="Layer_2" data-name="Layer 2" xmlns="http://www.w3.org/2000/svg" viewBox="0 0 78.74 58.54">
  <defs>
    <style>
      .cls-1 {
        fill: none;
        stroke: #fa162e;
        stroke-miterlimit: 10;
        stroke-width: 2px;
      }

      .cls-2 {
        fill: #050505;
      }

      .cls-2, .cls-3 {
        stroke-width: 0px;
      }

      .cls-3 {
        fill: #fa162e;
      }
    </style>
  </defs>
  <g id="TEXTS">
    <g>
      <g>
        <path class="cls-3" d="M21.17,10.54c9,.24,15.45,4.47,19.39,12.54.4.83.37.84.94.1,3.76-4.88,8.67-7.51,14.88-7.25,5.86.24,10.5,2.89,13.81,7.76,2.29,3.37,3.29,7.14,2.87,11.16-.66,6.27-3.79,11.07-9.42,13.97-5.15,2.66-10.44,2.66-15.67.09-.69-.34-1.01-.23-1.35.42-1.37,2.63-2.75,5.24-4.18,7.84-.98,1.79-2.64,1.83-3.75.12-1.59-2.46-3.16-4.94-4.69-7.44-.42-.69-.73-.82-1.48-.36-6.44,3.94-13.22,4.44-20.08,1.35C5.01,47.48.87,41.48.11,33.45c-.63-6.64,1.6-12.43,6.49-17.14,3.47-3.34,7.59-5.17,12.31-5.76.74-.09,1.51-.01,2.26-.01ZM37.87,31.59c0-9.22-7.46-16.77-16.66-16.7-9.42.07-16.75,7.32-16.74,16.72,0,9.72,7.79,16.67,16.68,16.69,9.28.02,16.72-7.43,16.72-16.71ZM55.65,46.24c6.65.21,12.98-5.18,13-12.88.02-7.62-6.22-12.94-12.95-12.98-6.74-.04-12.98,5.55-12.99,12.93-.01,7.41,6.24,13.16,12.94,12.93ZM40.4,52.63c1.13-2.13,2.17-4.1,3.22-6.06.19-.35.02-.6-.22-.85-1.16-1.19-2.2-2.48-2.97-3.96-.24-.46-.43-.5-.67,0-.56,1.12-1.29,2.13-2.08,3.11-1.21,1.52-1.21,1.53-.16,3.23.91,1.47,1.85,2.93,2.87,4.53Z"/>
        <path class="cls-3" d="M21.7.01c3.61.05,6.97,1.11,10.26,2.48,3.79,1.58,7.21,3.75,10.16,6.62.51.49.85.26,1.28,0,3.37-2.09,7-3.51,10.9-4.23.88-.16,1.78-.28,2.68-.31,1.4-.06,2.39.78,2.5,2.01.11,1.16-.73,2.16-2.07,2.38-1.4.23-2.83.32-4.21.7-3.14.87-6,2.33-8.74,4.07-.32.2-.63.41-.96.6-1.1.63-1.95.55-2.82-.37-1.94-2.06-4.03-3.93-6.51-5.33-4.19-2.38-8.64-3.98-13.45-4.54-1.7-.2-2.64-1.61-2.04-3.08.27-.65.68-1.05,1.45-.99.52.04,1.05,0,1.57,0Z"/>
        <path class="cls-2" d="M17.4,35.15c0-4.19,3.33-7.46,7.55-7.46,4.14,0,7.54,3.42,7.52,7.55-.02,4.08-3.52,7.54-7.61,7.51-4.12-.02-7.48-3.44-7.47-7.6Z"/>
        <path class="cls-2" d="M51.85,29.79c3.14,0,5.73,2.58,5.74,5.7,0,3.14-2.63,5.74-5.81,5.72-3.14-.02-5.74-2.64-5.69-5.75.05-3.17,2.6-5.68,5.76-5.68Z"/>
      </g>
      <path class="cls-1" d="M52.42,57.42c-1.1-.05-2.24-.13-3.4-.25l.11-.99c14.07,1.49,23.28-2.78,27.39-12.67l.92.38c-3.95,9.52-12.36,14.06-25.01,13.53Z"/>
    </g>
  </g>
</svg>